# xmcd
#
# Track frame offsets:
#	150
#	14025
#	27967
#	42215
#	55587
#	65020
#	78157
#	93982
#	109885
#	122910
#	137350
#	151002
#	163782
#	178427
#	188937
#	203452
#
# Disc length: 2902
#
# Revision: 1
# Processed by: cddbd v1.5.1PL0 Copyright (c) Steve Scherf et al.
# Submitted via: dBpowerAMP V4.0
# Normalized: r0:TRMNUM
#
DISCID=d20b5410
DTITLE=Paul James - Acoustic Blues
DYEAR=1900
DGENRE=Blues
TTITLE0=I Shall Be Free
TTITLE1=Cadillac Walk
TTITLE2=No Life  For Me
TTITLE3=Nasty Swing
TTITLE4=This Time I'm Really Going
TTITLE5=I Can't  Be Satisfied
TTITLE6=I'm A Real Kingfisher
TTITLE7=The Night Has A Price
TTITLE8=Roving Gambler
TTITLE9=Lucky In Love
TTITLE10=San Fransisco Bay Blues
TTITLE11=Phonograph Blues
TTITLE12=Deep  River Blues
TTITLE13=Milkcow's Calf's Blues.
TTITLE14=If A Woman Says She Loves You
TTITLE15=Who Do You Love
EXTD=Features John Hammond, Ken Whitely, Chris Whitely\nProduced by Ken Whitely and Paul James
EXTT0=
EXTT1=
EXTT2=
EXTT3=
EXTT4=
EXTT5=
EXTT6=
EXTT7=
EXTT8=
EXTT9=
EXTT10=
EXTT11=
EXTT12=
EXTT13=
EXTT14=
EXTT15=
PLAYORDER=
